<svg id="wave" style="transform:rotate(0deg); transition: 0.3s" viewBox="0 0 1440 490" version="1.1" xmlns="http://www.w3.org/2000/svg"><defs><linearGradient id="sw-gradient-0" x1="0" x2="0" y1="1" y2="0"><stop stop-color="rgba(242.833, 255, 254.959, 1)" offset="0%"></stop><stop stop-color="rgba(155.001, 241.787, 255, 1)" offset="100%"></stop></linearGradient></defs><path style="transform:translate(0, 0px); opacity:1" stroke="#2C74B3" stroke-width="5" fill="url(#sw-gradient-0)" d="M0,441L21.8,392C43.6,343,87,245,131,187.8C174.5,131,218,114,262,114.3C305.5,114,349,131,393,179.7C436.4,229,480,310,524,351.2C567.3,392,611,392,655,351.2C698.2,310,742,229,785,163.3C829.1,98,873,49,916,98C960,147,1004,294,1047,302.2C1090.9,310,1135,180,1178,130.7C1221.8,82,1265,114,1309,171.5C1352.7,229,1396,310,1440,326.7C1483.6,343,1527,294,1571,253.2C1614.5,212,1658,180,1702,138.8C1745.5,98,1789,49,1833,49C1876.4,49,1920,98,1964,155.2C2007.3,212,2051,278,2095,294C2138.2,310,2182,278,2225,253.2C2269.1,229,2313,212,2356,212.3C2400,212,2444,229,2487,228.7C2530.9,229,2575,212,2618,196C2661.8,180,2705,163,2749,204.2C2792.7,245,2836,343,2880,318.5C2923.6,294,2967,147,3011,122.5C3054.5,98,3098,196,3120,245L3141.8,294L3141.8,490L3120,490C3098.2,490,3055,490,3011,490C2967.3,490,2924,490,2880,490C2836.4,490,2793,490,2749,490C2705.5,490,2662,490,2618,490C2574.5,490,2531,490,2487,490C2443.6,490,2400,490,2356,490C2312.7,490,2269,490,2225,490C2181.8,490,2138,490,2095,490C2050.9,490,2007,490,1964,490C1920,490,1876,490,1833,490C1789.1,490,1745,490,1702,490C1658.2,490,1615,490,1571,490C1527.3,490,1484,490,1440,490C1396.4,490,1353,490,1309,490C1265.5,490,1222,490,1178,490C1134.5,490,1091,490,1047,490C1003.6,490,960,490,916,490C872.7,490,829,490,785,490C741.8,490,698,490,655,490C610.9,490,567,490,524,490C480,490,436,490,393,490C349.1,490,305,490,262,490C218.2,490,175,490,131,490C87.3,490,44,490,22,490L0,490Z"></path></svg> 